<svg width="609" height="165" viewBox="0 0 609 165" fill="none" xmlns="http://www.w3.org/2000/svg">
<path d="M27.1364 121.251C12.7137 121.251 5.50232 112.872 5.50232 96.1149V43.8429C5.50232 27.0859 12.7137 18.7074 27.1364 18.7074C41.4758 18.7074 48.6455 27.0859 48.6455 43.8429V96.1149C48.6455 112.872 41.4758 121.251 27.1364 121.251ZM13.1305 96.3651C13.1305 103.368 14.2977 108.203 16.632 110.871C19.0497 113.539 22.5512 114.873 27.1364 114.873C31.6383 114.873 35.0564 113.539 37.3907 110.871C39.8084 108.203 41.0173 103.368 41.0173 96.3651V43.5928C41.0173 36.5899 39.8084 31.7545 37.3907 29.0867C35.0564 26.4189 31.6383 25.085 27.1364 25.085C22.5512 25.085 19.0497 26.4189 16.632 29.0867C14.2977 31.7545 13.1305 36.5899 13.1305 43.5928V96.3651ZM60.6027 19.9579H71.4822L85.9883 105.619L100.494 19.9579H111.374V120H104.246V36.965L89.7399 120H82.2368L67.7307 36.965V120H60.6027V19.9579ZM124.35 19.9579H131.728L160.365 100.992V19.9579H167.618V120H160.115L131.478 38.8408V120H124.35V19.9579ZM180.648 19.9579H188.277V120H180.648V19.9579ZM221.67 121.251C204.747 121.251 196.285 111.08 196.285 90.7377V84.9853H218.544V98.7411C218.544 100.575 218.794 101.867 219.294 102.618C219.795 103.368 220.628 103.743 221.796 103.743C222.963 103.743 223.796 103.368 224.297 102.618C224.797 101.867 225.047 100.575 225.047 98.7411V91.1128C225.047 88.6952 224.63 86.7777 223.796 85.3604C223.046 83.8598 221.837 82.4425 220.17 81.1086L210.416 73.1053C205.664 69.1869 202.079 65.1853 199.661 61.1002C197.327 56.9318 196.16 51.7629 196.16 45.5937C196.16 37.0901 198.327 30.504 202.662 25.8354C207.081 21.0834 213.459 18.7074 221.796 18.7074C229.716 18.7074 235.843 20.9166 240.178 25.3352C244.597 29.7537 246.806 35.9646 246.806 43.968V52.3465H224.672V41.2168C224.672 39.3827 224.422 38.0905 223.921 37.3402C223.421 36.5899 222.588 36.2147 221.42 36.2147C220.253 36.2147 219.42 36.5899 218.919 37.3402C218.502 38.0905 218.294 39.3827 218.294 41.2168V46.344C218.294 48.7617 218.669 50.7208 219.42 52.2215C220.253 53.6387 221.504 55.0143 223.171 56.3482L232.8 64.2265C236.135 66.9777 238.761 69.4787 240.678 71.7297C242.679 73.9806 244.263 76.7735 245.43 80.1082C246.681 83.4429 247.306 87.6114 247.306 92.6135C247.306 102.117 245.139 109.287 240.804 114.123C236.552 118.875 230.174 121.251 221.67 121.251ZM276.529 121.251C259.522 121.251 251.019 111.038 251.019 90.6126V49.3453C251.019 38.9242 253.145 31.2126 257.396 26.2105C261.732 21.2084 268.109 18.7074 276.529 18.7074C284.95 18.7074 291.286 21.2084 295.537 26.2105C299.873 31.2126 302.04 38.9242 302.04 49.3453V60.6H279.781V41.3419C279.781 39.4244 279.531 38.0905 279.031 37.3402C278.53 36.5899 277.697 36.2147 276.529 36.2147C275.362 36.2147 274.529 36.5899 274.028 37.3402C273.528 38.0905 273.278 39.4244 273.278 41.3419V98.7411C273.278 100.575 273.528 101.867 274.028 102.618C274.529 103.368 275.362 103.743 276.529 103.743C277.697 103.743 278.53 103.368 279.031 102.618C279.531 101.867 279.781 100.575 279.781 98.7411V79.3579H302.04V90.6126C302.04 111.038 293.537 121.251 276.529 121.251ZM331.851 121.251C323.43 121.251 317.053 118.749 312.718 113.747C308.466 108.745 306.34 101.034 306.34 90.6126V49.3453C306.34 38.9242 308.466 31.2126 312.718 26.2105C317.053 21.2084 323.43 18.7074 331.851 18.7074C340.271 18.7074 346.607 21.2084 350.859 26.2105C355.194 31.2126 357.361 38.9242 357.361 49.3453V90.6126C357.361 101.034 355.194 108.745 350.859 113.747C346.607 118.749 340.271 121.251 331.851 121.251ZM328.599 98.7411C328.599 100.492 328.808 101.784 329.225 102.618C329.725 103.368 330.6 103.743 331.851 103.743C333.101 103.743 333.935 103.368 334.352 102.618C334.852 101.784 335.102 100.492 335.102 98.7411V41.4669C335.102 39.6328 334.852 38.2989 334.352 37.4653C333.935 36.6316 333.101 36.2147 331.851 36.2147C330.6 36.2147 329.725 36.6316 329.225 37.4653C328.808 38.2156 328.599 39.5078 328.599 41.3419V98.7411ZM388.28 121.251C379.776 121.251 373.398 118.916 369.147 114.248C364.895 109.579 362.769 102.117 362.769 91.8632V19.9579H385.028V98.7411C385.028 100.492 385.237 101.784 385.654 102.618C386.154 103.368 387.029 103.743 388.28 103.743C389.53 103.743 390.364 103.368 390.781 102.618C391.281 101.784 391.531 100.492 391.531 98.7411V19.9579H413.79V91.8632C413.79 102.117 411.664 109.579 407.413 114.248C403.161 118.916 396.783 121.251 388.28 121.251ZM431.185 38.0905H417.68V19.9579H466.45V38.0905H452.945V120H431.185V38.0905ZM470.608 19.9579H492.367V120H470.608V19.9579ZM498.574 19.9579H517.832L530.212 67.728V19.9579H549.471V120H530.212L517.832 72.1048V120H498.574V19.9579ZM577.611 121.251C570.858 121.251 565.398 118.791 561.229 113.872C557.144 108.87 555.102 101.617 555.102 92.1133V49.3453C555.102 38.9242 557.228 31.2126 561.48 26.2105C565.815 21.2084 572.192 18.7074 580.613 18.7074C589.033 18.7074 595.369 21.2084 599.621 26.2105C603.956 31.2126 606.123 38.9242 606.123 49.3453V61.4754H583.864V41.3419C583.864 39.4244 583.614 38.0905 583.114 37.3402C582.613 36.5899 581.78 36.2147 580.613 36.2147C579.445 36.2147 578.612 36.5899 578.112 37.3402C577.611 38.0905 577.361 39.4244 577.361 41.3419V98.7411C577.361 100.575 577.611 101.867 578.112 102.618C578.612 103.368 579.445 103.743 580.613 103.743C581.78 103.743 582.613 103.368 583.114 102.618C583.614 101.867 583.864 100.617 583.864 98.8661V84.36H580.613V67.728H606.123V120H597.37L594.368 113.872C589.866 118.791 584.281 121.251 577.611 121.251Z" fill="white"/>
</svg>
