<svg width="609" height="179" viewBox="0 0 609 179" fill="none" xmlns="http://www.w3.org/2000/svg">
<path d="M27.1364 135.251C12.7137 135.251 5.50232 126.872 5.50232 110.115V57.8429C5.50232 41.0859 12.7137 32.7074 27.1364 32.7074C41.4758 32.7074 48.6455 41.0859 48.6455 57.8429V110.115C48.6455 126.872 41.4758 135.251 27.1364 135.251ZM13.1305 110.365C13.1305 117.368 14.2977 122.203 16.632 124.871C19.0497 127.539 22.5512 128.873 27.1364 128.873C31.6383 128.873 35.0564 127.539 37.3907 124.871C39.8084 122.203 41.0173 117.368 41.0173 110.365V57.5928C41.0173 50.5899 39.8084 45.7545 37.3907 43.0867C35.0564 40.4189 31.6383 39.085 27.1364 39.085C22.5512 39.085 19.0497 40.4189 16.632 43.0867C14.2977 45.7545 13.1305 50.5899 13.1305 57.5928V110.365ZM60.6027 33.9579H71.4822L85.9883 119.619L100.494 33.9579H111.374V134H104.246V50.965L89.7399 134H82.2368L67.7307 50.965V134H60.6027V33.9579ZM124.35 33.9579H131.728L160.365 114.992V33.9579H167.618V134H160.115L131.478 52.8408V134H124.35V33.9579ZM180.648 33.9579H188.277V134H180.648V33.9579ZM221.67 135.251C204.747 135.251 196.285 125.08 196.285 104.738V98.9853H218.544V112.741C218.544 114.575 218.794 115.867 219.294 116.618C219.795 117.368 220.628 117.743 221.796 117.743C222.963 117.743 223.796 117.368 224.297 116.618C224.797 115.867 225.047 114.575 225.047 112.741V105.113C225.047 102.695 224.63 100.778 223.796 99.3604C223.046 97.8598 221.837 96.4425 220.17 95.1086L210.416 87.1053C205.664 83.1869 202.079 79.1853 199.661 75.1002C197.327 70.9318 196.16 65.7629 196.16 59.5937C196.16 51.0901 198.327 44.504 202.662 39.8354C207.081 35.0834 213.459 32.7074 221.796 32.7074C229.716 32.7074 235.843 34.9166 240.178 39.3352C244.597 43.7537 246.806 49.9646 246.806 57.968V66.3465H224.672V55.2168C224.672 53.3827 224.422 52.0905 223.921 51.3402C223.421 50.5899 222.588 50.2147 221.42 50.2147C220.253 50.2147 219.42 50.5899 218.919 51.3402C218.502 52.0905 218.294 53.3827 218.294 55.2168V60.344C218.294 62.7617 218.669 64.7208 219.42 66.2215C220.253 67.6387 221.504 69.0143 223.171 70.3482L232.8 78.2265C236.135 80.9777 238.761 83.4787 240.678 85.7297C242.679 87.9806 244.263 90.7735 245.43 94.1082C246.681 97.4429 247.306 101.611 247.306 106.613C247.306 116.117 245.139 123.287 240.804 128.123C236.552 132.875 230.174 135.251 221.67 135.251ZM276.529 135.251C259.522 135.251 251.019 125.038 251.019 104.613V63.3453C251.019 52.9242 253.145 45.2126 257.396 40.2105C261.732 35.2084 268.109 32.7074 276.529 32.7074C284.95 32.7074 291.286 35.2084 295.537 40.2105C299.873 45.2126 302.04 52.9242 302.04 63.3453V74.6H279.781V55.3419C279.781 53.4244 279.531 52.0905 279.031 51.3402C278.53 50.5899 277.697 50.2147 276.529 50.2147C275.362 50.2147 274.529 50.5899 274.028 51.3402C273.528 52.0905 273.278 53.4244 273.278 55.3419V112.741C273.278 114.575 273.528 115.867 274.028 116.618C274.529 117.368 275.362 117.743 276.529 117.743C277.697 117.743 278.53 117.368 279.031 116.618C279.531 115.867 279.781 114.575 279.781 112.741V93.3579H302.04V104.613C302.04 125.038 293.537 135.251 276.529 135.251ZM331.851 135.251C323.43 135.251 317.053 132.749 312.718 127.747C308.466 122.745 306.34 115.034 306.34 104.613V63.3453C306.34 52.9242 308.466 45.2126 312.718 40.2105C317.053 35.2084 323.43 32.7074 331.851 32.7074C340.271 32.7074 346.607 35.2084 350.859 40.2105C355.194 45.2126 357.361 52.9242 357.361 63.3453V104.613C357.361 115.034 355.194 122.745 350.859 127.747C346.607 132.749 340.271 135.251 331.851 135.251ZM328.599 112.741C328.599 114.492 328.808 115.784 329.225 116.618C329.725 117.368 330.6 117.743 331.851 117.743C333.101 117.743 333.935 117.368 334.352 116.618C334.852 115.784 335.102 114.492 335.102 112.741V55.4669C335.102 53.6328 334.852 52.2989 334.352 51.4653C333.935 50.6316 333.101 50.2147 331.851 50.2147C330.6 50.2147 329.725 50.6316 329.225 51.4653C328.808 52.2156 328.599 53.5078 328.599 55.3419V112.741ZM388.28 135.251C379.776 135.251 373.398 132.916 369.147 128.248C364.895 123.579 362.769 116.117 362.769 105.863V33.9579H385.028V112.741C385.028 114.492 385.237 115.784 385.654 116.618C386.154 117.368 387.029 117.743 388.28 117.743C389.53 117.743 390.364 117.368 390.781 116.618C391.281 115.784 391.531 114.492 391.531 112.741V33.9579H413.79V105.863C413.79 116.117 411.664 123.579 407.413 128.248C403.161 132.916 396.783 135.251 388.28 135.251ZM431.185 52.0905H417.68V33.9579H466.45V52.0905H452.945V134H431.185V52.0905ZM470.608 33.9579H492.367V134H470.608V33.9579ZM498.574 33.9579H517.832L530.212 81.728V33.9579H549.471V134H530.212L517.832 86.1048V134H498.574V33.9579ZM577.611 135.251C570.858 135.251 565.398 132.791 561.229 127.872C557.144 122.87 555.102 115.617 555.102 106.113V63.3453C555.102 52.9242 557.228 45.2126 561.48 40.2105C565.815 35.2084 572.192 32.7074 580.613 32.7074C589.033 32.7074 595.369 35.2084 599.621 40.2105C603.956 45.2126 606.123 52.9242 606.123 63.3453V75.4754H583.864V55.3419C583.864 53.4244 583.614 52.0905 583.114 51.3402C582.613 50.5899 581.78 50.2147 580.613 50.2147C579.445 50.2147 578.612 50.5899 578.112 51.3402C577.611 52.0905 577.361 53.4244 577.361 55.3419V112.741C577.361 114.575 577.611 115.867 578.112 116.618C578.612 117.368 579.445 117.743 580.613 117.743C581.78 117.743 582.613 117.368 583.114 116.618C583.614 115.867 583.864 114.617 583.864 112.866V98.36H580.613V81.728H606.123V134H597.37L594.368 127.872C589.866 132.791 584.281 135.251 577.611 135.251Z" fill="black"/>
<path d="M8.16281 4.05858H5.40331V3.01846H12.2172V4.05858H9.45765V20H8.16281V4.05858ZM16.7164 20.2123C14.2683 20.2123 13.0442 18.7901 13.0442 15.9457V7.0728C13.0442 4.2284 14.2683 2.80619 16.7164 2.80619C19.1505 2.80619 20.3675 4.2284 20.3675 7.0728V15.9457C20.3675 18.7901 19.1505 20.2123 16.7164 20.2123ZM14.339 15.9881C14.339 17.1768 14.5371 17.9976 14.9334 18.4504C15.3438 18.9033 15.9381 19.1297 16.7164 19.1297C17.4806 19.1297 18.0608 18.9033 18.457 18.4504C18.8674 17.9976 19.0726 17.1768 19.0726 15.9881V7.03035C19.0726 5.84164 18.8674 5.02087 18.457 4.56803C18.0608 4.11518 17.4806 3.88876 16.7164 3.88876C15.9381 3.88876 15.3438 4.11518 14.9334 4.56803C14.5371 5.02087 14.339 5.84164 14.339 7.03035V15.9881ZM23.9172 4.05858H21.1577V3.01846H27.9715V4.05858H25.212V20H23.9172V4.05858ZM30.4262 3.01846H32.2729L35.0324 20H33.7376L33.1433 16.1155H29.5559L28.9615 20H27.6667L30.4262 3.01846ZM32.9734 15.0754L31.339 4.44066L29.7045 15.0754H32.9734ZM36.5346 3.01846H37.8294V18.9599H42.4781V20H36.5346V3.01846ZM51.5636 20.2123C48.988 20.2123 47.7003 18.6839 47.7003 15.6273V7.36998C47.7003 5.8841 48.0116 4.75199 48.6343 3.97367C49.2569 3.19535 50.2334 2.80619 51.5636 2.80619C54.1391 2.80619 55.4269 4.32745 55.4269 7.36998V9.93844H53.3679V6.88176C53.3679 5.96193 53.2122 5.32512 52.9009 4.97134C52.6037 4.61756 52.1579 4.44066 51.5636 4.44066C50.9692 4.44066 50.5164 4.61756 50.2051 4.97134C49.9079 5.32512 49.7593 5.96193 49.7593 6.88176V16.1155C49.7593 17.0495 49.9079 17.6933 50.2051 18.0471C50.5164 18.4009 50.9692 18.5778 51.5636 18.5778C52.1579 18.5778 52.6037 18.4009 52.9009 18.0471C53.2122 17.6933 53.3679 17.0495 53.3679 16.1155V13.08H55.4269V15.6273C55.4269 18.6839 54.1391 20.2123 51.5636 20.2123ZM60.726 20.2123C59.3958 20.2123 58.4193 19.8231 57.7967 19.0448C57.174 18.2665 56.8627 17.1344 56.8627 15.6485V7.36998C56.8627 5.8841 57.174 4.75199 57.7967 3.97367C58.4193 3.19535 59.3958 2.80619 60.726 2.80619C63.3015 2.80619 64.5893 4.32745 64.5893 7.36998V15.6485C64.5893 18.691 63.3015 20.2123 60.726 20.2123ZM58.9217 16.1155C58.9217 17.0212 59.0703 17.658 59.3675 18.0259C59.6646 18.3797 60.1175 18.5566 60.726 18.5566C61.3203 18.5566 61.7661 18.3797 62.0633 18.0259C62.3746 17.658 62.5303 17.0212 62.5303 16.1155V6.92421C62.5303 6.00438 62.3746 5.36757 62.0633 5.01379C61.7661 4.64586 61.3203 4.46189 60.726 4.46189C60.1175 4.46189 59.6646 4.64586 59.3675 5.01379C59.0703 5.36757 58.9217 5.99731 58.9217 6.90299V16.1155ZM66.3188 3.01846H68.1867L72.1986 15.0329V3.01846H74.0454V20H72.1774L68.1655 7.96433V20H66.3188V3.01846ZM77.9331 4.69539H75.3221V3.01846H82.5818V4.69539H79.9708V20H77.9331V4.69539ZM89.6084 20C89.5093 19.8868 89.4456 19.7099 89.4173 19.4693C89.389 19.2146 89.3749 18.8891 89.3749 18.4929V14.9904C89.3749 14.014 89.1484 13.363 88.6956 13.0376C88.2428 12.7121 87.6979 12.5493 87.0611 12.5493H85.8724V20H83.8559V3.01846H87.0399C88.1862 3.01846 89.0706 3.13875 89.6933 3.37932C90.3301 3.61989 90.7829 4.04443 91.0518 4.65293C91.3348 5.26144 91.4763 6.13174 91.4763 7.26385V7.64593C91.4763 8.77803 91.3136 9.65541 90.9881 10.2781C90.6768 10.9007 90.0895 11.3819 89.2263 11.7215C89.9904 11.9762 90.5494 12.4008 90.9032 12.9951C91.257 13.5753 91.4339 14.3183 91.4339 15.2239V18.4929C91.4339 19.2429 91.5117 19.7453 91.6674 20H89.6084ZM87.0611 10.9998C87.9951 10.9998 88.6178 10.7804 88.9291 10.3417C89.2546 9.88891 89.4173 9.24503 89.4173 8.4101V7.03035C89.4173 6.30863 89.3395 5.77796 89.1838 5.43833C89.0423 5.08455 88.8088 4.85105 88.4833 4.73784C88.172 4.62463 87.6979 4.56803 87.0611 4.56803H85.8724V10.9998H87.0611ZM96.7952 20.2123C95.4649 20.2123 94.4885 19.8231 93.8658 19.0448C93.2432 18.2665 92.9319 17.1344 92.9319 15.6485V7.36998C92.9319 5.8841 93.2432 4.75199 93.8658 3.97367C94.4885 3.19535 95.4649 2.80619 96.7952 2.80619C99.3707 2.80619 100.658 4.32745 100.658 7.36998V15.6485C100.658 18.691 99.3707 20.2123 96.7952 20.2123ZM94.9909 16.1155C94.9909 17.0212 95.1395 17.658 95.4366 18.0259C95.7338 18.3797 96.1867 18.5566 96.7952 18.5566C97.3895 18.5566 97.8353 18.3797 98.1325 18.0259C98.4438 17.658 98.5995 17.0212 98.5995 16.1155V6.92421C98.5995 6.00438 98.4438 5.36757 98.1325 5.01379C97.8353 4.64586 97.3895 4.46189 96.7952 4.46189C96.1867 4.46189 95.7338 4.64586 95.4366 5.01379C95.1395 5.36757 94.9909 5.99731 94.9909 6.90299V16.1155ZM102.388 3.01846H104.405V18.3231H108.607V20H102.388V3.01846ZM110.784 20.2123C110.388 20.2123 110.055 20.0849 109.786 19.8302C109.517 19.5755 109.383 19.2429 109.383 18.8325C109.383 18.408 109.517 18.0683 109.786 17.8136C110.055 17.5448 110.388 17.4103 110.784 17.4103C111.166 17.4103 111.492 17.5448 111.76 17.8136C112.029 18.0683 112.164 18.408 112.164 18.8325C112.164 19.2429 112.029 19.5755 111.76 19.8302C111.492 20.0849 111.166 20.2123 110.784 20.2123Z" fill="black"/>
<path d="M114.892 3.01845H120.835V4.05857H116.187V10.9785H120.666V12.0399H116.187V18.9599H120.835V20H114.892V3.01845ZM121.882 3.01845H123.177L125.575 18.5141L127.953 3.01845H129.248L126.488 20H124.642L121.882 3.01845ZM130.75 3.01845H136.693V4.05857H132.045V10.9785H136.524V12.0399H132.045V18.9599H136.693V20H130.75V3.01845ZM144.511 20C144.412 19.8868 144.349 19.7099 144.32 19.4693C144.292 19.2146 144.278 18.8891 144.278 18.4929V15.1815C144.278 13.9079 143.974 13.08 143.365 12.6979C142.757 12.3017 142.028 12.1036 141.179 12.1036H139.735V20H138.441V3.01845H141.158C142.318 3.01845 143.209 3.13874 143.832 3.37931C144.469 3.60573 144.922 4.01612 145.191 4.61047C145.474 5.20483 145.615 6.06805 145.615 7.20016V7.6247C145.615 8.60113 145.452 9.41483 145.127 10.0658C144.802 10.7168 144.193 11.212 143.301 11.5517C144.066 11.8064 144.632 12.2309 145 12.8253C145.382 13.4196 145.573 14.2192 145.573 15.2239V18.4929C145.573 18.875 145.587 19.1934 145.615 19.4481C145.644 19.6887 145.707 19.8726 145.806 20H144.511ZM141.179 11.0847C142.042 11.0847 142.7 10.9432 143.153 10.6601C143.62 10.3771 143.931 10.0021 144.087 9.53512C144.243 9.05398 144.32 8.4667 144.32 7.77328V7.1577C144.32 6.19542 144.221 5.49493 144.023 5.05624C143.839 4.61755 143.535 4.3416 143.11 4.22839C142.7 4.10103 142.056 4.03735 141.179 4.03735H139.735V11.0847H141.179ZM149.625 14.0565L146.526 3.01845H147.864L150.262 12.2946L152.661 3.01845H153.998L150.92 14.0565V20H149.625V14.0565ZM159.332 3.01845H162.579C163.712 3.01845 164.603 3.18827 165.254 3.5279C165.905 3.85338 166.372 4.37698 166.655 5.09869C166.938 5.82041 167.08 6.80392 167.08 8.04923V8.74972C167.08 9.98088 166.931 10.9785 166.634 11.7427C166.351 12.4927 165.884 13.0446 165.233 13.3984C164.582 13.7522 163.697 13.9291 162.579 13.9291H161.348V20H159.332V3.01845ZM162.792 12.3583C163.613 12.3583 164.186 12.1319 164.511 11.679C164.851 11.2262 165.021 10.455 165.021 9.3653V7.43365C165.021 6.35816 164.851 5.61521 164.511 5.20483C164.186 4.78029 163.613 4.56802 162.792 4.56802H161.348V12.3583H162.792ZM168.411 3.01845H170.428V18.3231H174.631V20H168.411V3.01845ZM177.742 3.01845H180.587L183.134 20H181.075L180.629 16.54H177.7L177.254 20H175.195L177.742 3.01845ZM180.417 14.8631L179.165 5.14115L179.143 5.03501V5.09869L177.912 14.8631H180.417ZM185.503 14.0565L182.446 3.01845H184.547L186.5 11.4243L186.521 11.488V11.4243L188.474 3.01845H190.555L187.519 14.0565V20H185.503V14.0565ZM191.587 3.01845H197.785V4.69538H193.603V10.6814H197.594V12.3371H193.603V18.3231H197.785V20H191.587V3.01845ZM205.03 20C204.931 19.8868 204.867 19.7099 204.839 19.4693C204.811 19.2146 204.796 18.8891 204.796 18.4929V14.9904C204.796 14.014 204.57 13.363 204.117 13.0376C203.664 12.7121 203.119 12.5493 202.483 12.5493H201.294V20H199.277V3.01845H202.461C203.608 3.01845 204.492 3.13874 205.115 3.37931C205.752 3.61988 206.204 4.04442 206.473 4.65293C206.756 5.26143 206.898 6.13174 206.898 7.26384V7.64592C206.898 8.77803 206.735 9.6554 206.41 10.2781C206.098 10.9007 205.511 11.3819 204.648 11.7215C205.412 11.9762 205.971 12.4008 206.325 12.9951C206.678 13.5753 206.855 14.3183 206.855 15.2239V18.4929C206.855 19.2429 206.933 19.7453 207.089 20H205.03ZM202.483 10.9998C203.417 10.9998 204.039 10.7804 204.351 10.3417C204.676 9.8889 204.839 9.24502 204.839 8.41009V7.03034C204.839 6.30863 204.761 5.77795 204.605 5.43832C204.464 5.08454 204.23 4.85104 203.905 4.73783C203.594 4.62462 203.119 4.56802 202.483 4.56802H201.294V10.9998H202.483ZM209.415 20.2123C209.018 20.2123 208.686 20.0849 208.417 19.8302C208.148 19.5755 208.014 19.2429 208.014 18.8325C208.014 18.408 208.148 18.0683 208.417 17.8136C208.686 17.5447 209.018 17.4103 209.415 17.4103C209.797 17.4103 210.122 17.5447 210.391 17.8136C210.66 18.0683 210.794 18.408 210.794 18.8325C210.794 19.2429 210.66 19.5755 210.391 19.8302C210.122 20.0849 209.797 20.2123 209.415 20.2123Z" fill="black"/>
<path d="M216.569 20.2123C214.121 20.2123 212.897 18.7901 212.897 15.9456V7.0728C212.897 4.22839 214.121 2.80618 216.569 2.80618C219.003 2.80618 220.22 4.22839 220.22 7.0728V15.9456C220.22 18.7901 219.003 20.2123 216.569 20.2123ZM214.191 15.9881C214.191 17.1768 214.39 17.9976 214.786 18.4504C215.196 18.9033 215.791 19.1297 216.569 19.1297C217.333 19.1297 217.913 18.9033 218.309 18.4504C218.72 17.9976 218.925 17.1768 218.925 15.9881V7.03034C218.925 5.84163 218.72 5.02086 218.309 4.56802C217.913 4.11518 217.333 3.88876 216.569 3.88876C215.791 3.88876 215.196 4.11518 214.786 4.56802C214.39 5.02086 214.191 5.84163 214.191 7.03034V15.9881ZM222.25 3.01845H223.502L228.363 16.7735V3.01845H229.594V20H228.32L223.46 6.22372V20H222.25V3.01845ZM231.806 3.01845H237.749V4.05857H233.101V10.9785H237.58V12.0399H233.101V18.9599H237.749V20H231.806V3.01845ZM243.431 3.01845H246.679C247.811 3.01845 248.702 3.18827 249.353 3.5279C250.004 3.85338 250.471 4.37698 250.754 5.09869C251.037 5.82041 251.179 6.80392 251.179 8.04923V8.74972C251.179 9.98088 251.03 10.9785 250.733 11.7427C250.45 12.4927 249.983 13.0446 249.332 13.3984C248.681 13.7522 247.797 13.9291 246.679 13.9291H245.448V20H243.431V3.01845ZM246.891 12.3583C247.712 12.3583 248.285 12.1319 248.61 11.679C248.95 11.2262 249.12 10.455 249.12 9.3653V7.43365C249.12 6.35816 248.95 5.61521 248.61 5.20483C248.285 4.78029 247.712 4.56802 246.891 4.56802H245.448V12.3583H246.891ZM252.511 3.01845H254.527V18.3231H258.73V20H252.511V3.01845ZM261.842 3.01845H264.686L267.233 20H265.174L264.728 16.54H261.799L261.353 20H259.294L261.842 3.01845ZM264.516 14.8631L263.264 5.14115L263.243 5.03501V5.09869L262.011 14.8631H264.516ZM269.39 4.69538H266.779V3.01845H274.039V4.69538H271.428V20H269.39V4.69538ZM275.313 3.01845H281.511V4.69538H277.329V11.5304H281.384V13.1861H277.329V20H275.313V3.01845ZM286.407 20.2123C285.077 20.2123 284.101 19.8231 283.478 19.0448C282.855 18.2665 282.544 17.1344 282.544 15.6485V7.36997C282.544 5.88409 282.855 4.75198 283.478 3.97366C284.101 3.19534 285.077 2.80618 286.407 2.80618C288.983 2.80618 290.271 4.32745 290.271 7.36997V15.6485C290.271 18.691 288.983 20.2123 286.407 20.2123ZM284.603 16.1155C284.603 17.0211 284.752 17.658 285.049 18.0259C285.346 18.3797 285.799 18.5566 286.407 18.5566C287.002 18.5566 287.447 18.3797 287.745 18.0259C288.056 17.658 288.212 17.0211 288.212 16.1155V6.92421C288.212 6.00437 288.056 5.36757 287.745 5.01378C287.447 4.64585 287.002 4.46188 286.407 4.46188C285.799 4.46188 285.346 4.64585 285.049 5.01378C284.752 5.36757 284.603 5.9973 284.603 6.90298V16.1155ZM297.753 20C297.654 19.8868 297.59 19.7099 297.562 19.4693C297.533 19.2146 297.519 18.8891 297.519 18.4929V14.9904C297.519 14.014 297.293 13.363 296.84 13.0376C296.387 12.7121 295.842 12.5493 295.205 12.5493H294.017V20H292V3.01845H295.184C296.33 3.01845 297.215 3.13874 297.837 3.37931C298.474 3.61988 298.927 4.04442 299.196 4.65293C299.479 5.26143 299.621 6.13174 299.621 7.26384V7.64592C299.621 8.77803 299.458 9.6554 299.132 10.2781C298.821 10.9007 298.234 11.3819 297.37 11.7215C298.135 11.9762 298.694 12.4008 299.047 12.9951C299.401 13.5753 299.578 14.3183 299.578 15.2239V18.4929C299.578 19.2429 299.656 19.7453 299.812 20H297.753ZM295.205 10.9998C296.139 10.9998 296.762 10.7804 297.073 10.3417C297.399 9.8889 297.562 9.24502 297.562 8.41009V7.03034C297.562 6.30863 297.484 5.77795 297.328 5.43832C297.187 5.08454 296.953 4.85104 296.628 4.73783C296.316 4.62462 295.842 4.56802 295.205 4.56802H294.017V10.9998H295.205ZM301.225 3.01845H303.772L305.873 15.6272L307.975 3.01845H310.522V20H308.675V7.75206L306.531 20H305.215L303.071 7.75206V20H301.225V3.01845ZM313.311 20.2123C312.914 20.2123 312.582 20.0849 312.313 19.8302C312.044 19.5755 311.91 19.2429 311.91 18.8325C311.91 18.408 312.044 18.0683 312.313 17.8136C312.582 17.5447 312.914 17.4103 313.311 17.4103C313.693 17.4103 314.018 17.5447 314.287 17.8136C314.556 18.0683 314.69 18.408 314.69 18.8325C314.69 19.2429 314.556 19.5755 314.287 19.8302C314.018 20.0849 313.693 20.2123 313.311 20.2123Z" fill="black"/>
</svg>
